<svg width="23" height="24" viewBox="0 0 23 24" fill="none" xmlns="http://www.w3.org/2000/svg">
<path d="M12.7969 18.6356C13.0655 18.6356 13.2906 18.5447 13.4723 18.3631C13.6539 18.1814 13.7448 17.9562 13.7448 17.6877C13.7448 17.4191 13.6539 17.194 13.4723 17.0123C13.2906 16.8306 13.0655 16.7397 12.7969 16.7397C12.5283 16.7397 12.3032 16.8306 12.1215 17.0123C11.9398 17.194 11.849 17.4191 11.849 17.6877C11.849 17.9562 11.9398 18.1814 12.1215 18.3631C12.3032 18.5447 12.5283 18.6356 12.7969 18.6356ZM16.1146 18.6356C16.3832 18.6356 16.6083 18.5447 16.79 18.3631C16.9717 18.1814 17.0625 17.9562 17.0625 17.6877C17.0625 17.4191 16.9717 17.194 16.79 17.0123C16.6083 16.8306 16.3832 16.7397 16.1146 16.7397C15.846 16.7397 15.6209 16.8306 15.4392 17.0123C15.2575 17.194 15.1667 17.4191 15.1667 17.6877C15.1667 17.9562 15.2575 18.1814 15.4392 18.3631C15.6209 18.5447 15.846 18.6356 16.1146 18.6356ZM2.84375 13.1851V3.94287C2.84375 3.5637 2.98594 3.23193 3.27031 2.94756C3.55469 2.66318 3.88646 2.521 4.26562 2.521H18.4844C18.8635 2.521 19.1953 2.66318 19.4797 2.94756C19.7641 3.23193 19.9062 3.5637 19.9062 3.94287V13.1851H2.84375ZM4.26562 21.4793C3.88646 21.4793 3.55469 21.3371 3.27031 21.0528C2.98594 20.7684 2.84375 20.4366 2.84375 20.0575V14.6069H19.9062V20.0575C19.9062 20.4366 19.7641 20.7684 19.4797 21.0528C19.1953 21.3371 18.8635 21.4793 18.4844 21.4793H4.26562Z" fill="#2E2E2E"/>
</svg>
